HIERARCHY
ROOT Hips
{
	OFFSET 0.00000 0.00000 0.00000
	CHANNELS 6 Xposition Yposition Zposition Zrotation Yrotation Xrotation 
	JOINT LHipJoint
	{
		OFFSET 0 0 0
		CHANNELS 3 Zrotation Yrotation Xrotation
		JOINT LeftUpLeg
		{
			OFFSET 1.61024 -1.73873 0.75100
			CHANNELS 3 Zrotation Yrotation Xrotation
			JOINT LeftLeg
			{
				OFFSET 2.29819 -6.31424 0.00000
				CHANNELS 3 Zrotation Yrotation Xrotation
				JOINT LeftFoot
				{
					OFFSET 2.76618 -7.60002 0.00000
					CHANNELS 3 Zrotation Yrotation Xrotation
					JOINT LeftToeBase
					{
						OFFSET 0.16838 -0.46263 2.02361
						CHANNELS 3 Zrotation Yrotation Xrotation
						End Site
						{
							OFFSET 0.00000 -0.00000 1.04662
						}
					}
				}
			}
		}
	}
	JOINT RHipJoint
	{
		OFFSET 0 0 0
		CHANNELS 3 Zrotation Yrotation Xrotation
		JOINT RightUpLeg
		{
			OFFSET -1.46153 -1.73873 0.75100
			CHANNELS 3 Zrotation Yrotation Xrotation
			JOINT RightLeg
			{
				OFFSET -2.38373 -6.54924 0.00000
				CHANNELS 3 Zrotation Yrotation Xrotation
				JOINT RightFoot
				{
					OFFSET -2.80314 -7.70157 0.00000
					CHANNELS 3 Zrotation Yrotation Xrotation
					JOINT RightToeBase
					{
						OFFSET -0.16142 -0.44349 2.02101
						CHANNELS 3 Zrotation Yrotation Xrotation
						End Site
						{
							OFFSET -0.00000 -0.00000 1.04381
						}
					}
				}
			}
		}
	}
	JOINT LowerBack
	{
		OFFSET 0 0 0
		CHANNELS 3 Zrotation Yrotation Xrotation
		JOINT Spine
		{
			OFFSET -0.01629 1.66985 0.14750
			CHANNELS 3 Zrotation Yrotation Xrotation
			JOINT Spine1
			{
				OFFSET 0.02086 1.62378 0.20980
				CHANNELS 3 Zrotation Yrotation Xrotation
				JOINT Neck
				{
					OFFSET 0 0 0
					CHANNELS 3 Zrotation Yrotation Xrotation
					JOINT Neck1
					{
						OFFSET -0.05690 1.78719 0.08702
						CHANNELS 3 Zrotation Yrotation Xrotation
						JOINT Head
						{
							OFFSET 0.16035 1.73871 -0.38470
							CHANNELS 3 Zrotation Yrotation Xrotation
							End Site
							{
								OFFSET 0.05645 1.80914 -0.14081
							}
						}
					}
				}
				JOINT LeftShoulder
				{
					OFFSET 0 0 0
					CHANNELS 3 Zrotation Yrotation Xrotation
					JOINT LeftArm
					{
						OFFSET 2.83089 1.66494 -0.46008
						CHANNELS 3 Zrotation Yrotation Xrotation
						JOINT LeftForeArm
						{
							OFFSET 5.54893 -0.00000 -0.00000
							CHANNELS 3 Zrotation Yrotation Xrotation
							JOINT LeftHand
							{
								OFFSET 3.02898 -0.00000 -0.00000
								CHANNELS 3 Zrotation Yrotation Xrotation
								JOINT LeftFingerBase
								{
									OFFSET 0 0 0
									CHANNELS 3 Zrotation Yrotation Xrotation
									JOINT LeftHandIndex1
									{
										OFFSET 0.64095 -0.00000 -0.00000
										CHANNELS 3 Zrotation Yrotation Xrotation
										End Site
										{
											OFFSET 0.51675 -0.00000 -0.00000
										}
									}
								}
								JOINT LThumb
								{
									OFFSET 0 0 0
									CHANNELS 3 Zrotation Yrotation Xrotation
									End Site
									{
										OFFSET 0.52464 -0.00000 0.52464
									}
								}
							}
						}
					}
				}
				JOINT RightShoulder
				{
					OFFSET 0 0 0
					CHANNELS 3 Zrotation Yrotation Xrotation
					JOINT RightArm
					{
						OFFSET -2.84442 1.45761 -0.18088
						CHANNELS 3 Zrotation Yrotation Xrotation
						JOINT RightForeArm
						{
							OFFSET -5.35190 -0.00000 -0.00000
							CHANNELS 3 Zrotation Yrotation Xrotation
							JOINT RightHand
							{
								OFFSET -3.02531 -0.00000 -0.00000
								CHANNELS 3 Zrotation Yrotation Xrotation
								JOINT RightFingerBase
								{
									OFFSET 0 0 0
									CHANNELS 3 Zrotation Yrotation Xrotation
									JOINT RightHandIndex1
									{
										OFFSET -0.78389 -0.00000 -0.00000
										CHANNELS 3 Zrotation Yrotation Xrotation
										End Site
										{
											OFFSET -0.63199 -0.00000 -0.00000
										}
									}
								}
								JOINT RThumb
								{
									OFFSET 0 0 0
									CHANNELS 3 Zrotation Yrotation Xrotation
									End Site
									{
										OFFSET -0.64164 -0.00000 0.64164
									}
								}
							}
						}
					}
				}
			}
		}
	}
}
MOTION
Frames: 13
Frame Time: .0083333
0.5574 17.7772 0.9298 286.8040 87.8363 -57.2317 0.0000 0.0000 0.0000 -12.3388 -22.0875 2.5576 0.0000 0.0000 0.0000 -0.3704 17.8394 -21.7168 0.1081 -2.1200 -5.8373 0.0000 0.0000 0.0000 20.0979 14.3114 -10.8972 -0.7871 -5.6637 15.8116 -0.6895 -9.7303 -22.0890 -0.2897 3.4611 -9.5653 -4.0311 -0.1053 -11.2681 -2.5623 0.7646 -11.3204 -0.4224 0.8653 -5.6365 -0.8137 3.5554 -10.9399 15.7880 2.2883 22.9143 5.8706 2.9761 8.7481 -0.0000 -0.0000 0.0000 -10.0325 -3.0093 -9.5871 62.2463 -56.8794 -36.2164 -0.0000 0.0000 -56.3047 -6.7565 26.5137 -3.0274 -7.1250 0.0000 -0.0000 -37.1548 52.4569 -7.6828 -0.0000 -0.0000 0.0000 30.5988 -19.3984 69.2051 -137.7902 49.3260 -99.9005 0.0000 -0.0000 -3.6267 5.9810 23.5898 2.4008 7.1250 -0.0000 -0.0000 21.4387 -7.5242 19.9351
0.5503 17.7785 0.9238 286.4050 87.7926 -57.6225 0.0000 0.0000 0.0000 -12.2851 -22.0912 2.5126 0.0000 -0.0000 -0.0000 -0.3627 17.7951 -21.7256 0.0784 -1.8059 -4.9697 0.0000 0.0000 0.0000 20.1166 14.4675 -10.8975 -0.7894 -5.6716 15.8346 -0.6766 -9.8622 -22.0905 -0.2909 3.4686 -9.5861 -4.0148 -0.1109 -11.1914 -2.4792 0.7511 -11.3309 -0.3464 0.8607 -5.6904 -0.9954 3.3420 -10.7699 15.7097 2.0605 22.6216 5.8274 2.8219 8.6338 0.0000 -0.0000 0.0000 -9.3794 -2.7369 -7.3780 64.7625 -57.4509 -38.3307 -0.0000 0.0000 -54.2156 -6.2527 26.0544 -2.7552 -7.1250 0.0000 -0.0000 -36.3727 52.1693 -7.2040 0.0000 -0.0000 0.0000 29.7727 -18.1795 67.5282 -137.9277 49.2509 -100.0047 0.0000 -0.0000 -3.1296 3.8712 23.9629 1.5743 7.1250 -0.0000 -0.0000 20.1932 -7.1152 18.7735
0.5431 17.7786 0.9173 285.7910 87.7526 -58.2251 0.0000 0.0000 0.0000 -12.2350 -22.1059 2.4676 0.0000 0.0000 0.0000 -0.3537 17.7536 -21.7534 0.0903 -1.9379 -5.3341 0.0000 0.0000 0.0000 20.1414 14.5002 -10.9030 -0.7869 -5.6628 15.8091 -0.6672 -9.9254 -22.0622 -0.3057 3.5547 -9.8270 -3.9912 -0.1269 -11.1454 -2.3930 0.7259 -11.3377 -0.2712 0.8497 -5.7229 -1.2040 3.1579 -10.6680 15.7092 1.8551 22.4148 5.8275 2.6914 8.5588 -0.0000 -0.0000 0.0000 -8.7358 -2.5040 -5.2434 67.3380 -57.9676 -40.5080 -0.0000 0.0000 -51.5908 -6.0923 25.2923 -2.6109 -7.1250 0.0000 -0.0000 -35.6913 51.5699 -6.4681 -0.0000 -0.0000 0.0000 29.0091 -16.9268 65.9465 -138.0858 49.1640 -100.1244 0.0000 -0.0000 -2.6614 2.0932 24.3232 0.8625 7.1250 -0.0000 -0.0000 19.1369 -6.7043 17.8221
0.5380 17.7786 0.9099 284.5680 87.7190 -59.4933 0.0000 0.0000 0.0000 -12.2239 -22.1302 2.5049 0.0000 0.0000 0.0000 -0.3737 17.8365 -21.6763 0.1331 -2.3514 -6.4778 0.0000 0.0000 0.0000 20.1839 14.5647 -10.7993 -0.7824 -5.6470 15.7634 -0.6509 -10.0662 -22.0414 -0.3073 3.5642 -9.8537 -3.9254 -0.1426 -11.0724 -2.3250 0.6949 -11.3244 -0.2388 0.8307 -5.7467 -1.3547 2.9600 -10.6612 15.6568 1.6167 22.2992 5.8062 2.5520 8.5390 -0.0000 0.0000 0.0000 -8.1122 -2.2941 -3.1224 70.1583 -58.4589 -42.9055 -0.0000 0.0000 -48.6861 -5.5599 24.7581 -2.3345 -7.1250 0.0000 -0.0000 -34.8548 51.2155 -5.9527 -0.0000 0.0000 0.0000 28.3142 -15.6095 64.6362 -138.4341 48.9708 -100.3875 0.0000 -0.0000 -2.2043 0.0336 23.8408 0.0136 7.1250 -0.0000 -0.0000 17.9439 -7.0583 16.4525
0.5330 17.7790 0.9016 281.9590 87.6849 -62.2596 0.0000 0.0000 0.0000 -12.2409 -22.1751 2.6888 0.0000 -0.0000 -0.0000 -0.4103 17.9752 -21.5137 0.1542 -2.5305 -6.9742 0.0000 0.0000 0.0000 20.2688 14.5011 -10.6270 -0.7801 -5.6389 15.7401 -0.6449 -10.1384 -22.0534 -0.3025 3.5360 -9.7747 -3.7977 -0.1308 -10.8203 -2.2828 0.6829 -11.3176 -0.2697 0.8159 -5.8751 -1.3951 2.7249 -10.6120 15.4635 1.3338 22.1906 5.7109 2.3854 8.5221 0.0000 -0.0000 0.0000 -7.4344 -2.1333 -0.9275 73.0694 -58.8887 -45.3924 -0.0000 0.0000 -45.8990 -5.2182 24.0448 -2.1311 -7.1250 0.0000 -0.0000 -34.0803 50.6753 -5.3005 0.0000 -0.0000 0.0000 27.6306 -14.4246 63.3954 -138.7578 48.7889 -100.6314 0.0000 -0.0000 -2.1433 -1.7235 23.4425 -0.6858 7.1250 -0.0000 -0.0000 16.9077 -7.3338 15.3110
0.5263 17.7804 0.8931 279.2510 87.7555 -65.0754 0.0000 0.0000 0.0000 -12.3406 -22.2967 2.7967 0.0000 0.0000 0.0000 -0.4642 18.1627 -21.2434 0.1811 -2.7410 -7.5584 0.0000 0.0000 0.0000 20.2312 14.4190 -10.5306 -0.7781 -5.6320 15.7203 -0.6386 -10.2344 -22.0859 -0.3022 3.5346 -9.7709 -3.8041 -0.1474 -10.6303 -2.2400 0.6459 -11.2799 -0.2248 0.7967 -5.9376 -1.4644 2.5113 -10.5455 15.2570 1.0972 21.9661 5.6126 2.2292 8.4570 0.0000 0.0000 0.0000 -6.8435 -2.1375 1.1069 76.0139 -59.2478 -47.9183 -0.0000 0.0000 -43.3779 -4.9092 23.4454 -1.9573 -7.1250 0.0000 -0.0000 -33.4237 50.2203 -4.7704 0.0000 0.0000 0.0000 26.9520 -13.2768 62.0126 -139.0231 48.6381 -100.8307 0.0000 -0.0000 -2.5498 -2.8841 23.4558 -1.1488 7.1250 -0.0000 -0.0000 16.2083 -7.2440 14.6493
0.5190 17.7812 0.8846 277.0370 87.8026 -67.3660 0.0000 0.0000 0.0000 -12.4088 -22.3933 2.8648 0.0000 0.0000 0.0000 -0.4602 18.1384 -21.2444 0.1631 -2.6022 -7.1731 0.0000 0.0000 0.0000 20.1952 14.3039 -10.4801 -0.7758 -5.6237 15.6964 -0.6365 -10.2363 -22.0675 -0.3085 3.5706 -9.8717 -3.8011 -0.1512 -10.5178 -2.1821 0.6305 -11.2281 -0.1664 0.7876 -5.9426 -1.5975 2.3141 -10.5501 15.0803 0.8814 21.8107 5.5444 2.0860 8.4250 -0.0000 0.0000 0.0000 -6.3718 -2.2087 3.1318 79.1943 -59.5542 -50.6560 -0.0000 0.0000 -41.1461 -4.0675 23.2350 -1.6069 -7.1250 0.0000 -0.0000 -32.5497 50.1737 -4.5791 -0.0000 0.0000 0.0000 26.2686 -12.1502 60.6557 -139.3551 48.4474 -101.0795 0.0000 -0.0000 -3.3125 -3.7262 23.4232 -1.4830 7.1250 -0.0000 -0.0000 15.6997 -7.2149 14.1598
0.5115 17.7819 0.8773 275.2220 87.8487 -69.2338 0.0000 0.0000 0.0000 -12.4811 -22.4806 2.9024 0.0000 -0.0000 -0.0000 -0.4726 18.1958 -21.2074 0.1740 -2.6872 -7.4089 0.0000 0.0000 0.0000 20.1448 14.3036 -10.4388 -0.7777 -5.6303 15.7155 -0.6260 -10.3397 -22.0687 -0.3136 3.5999 -9.9537 -3.8441 -0.1754 -10.4409 -2.0876 0.5942 -11.1764 -0.0445 0.7725 -5.9288 -1.8185 2.1484 -10.5345 14.9846 0.7153 21.6051 5.5213 1.9643 8.3652 -0.0000 0.0000 0.0000 -5.9580 -2.2101 5.1387 82.5315 -59.7882 -53.5367 -0.0000 0.0000 -39.0392 -3.1875 23.1764 -1.2556 -7.1250 0.0000 -0.0000 -31.7337 50.2611 -4.5149 -0.0000 0.0000 0.0000 25.5139 -11.0029 59.4117 -139.7747 48.2028 -101.3929 0.0000 -0.0000 -4.3004 -4.0735 23.5004 -1.6266 7.1250 -0.0000 -0.0000 15.4881 -7.1147 13.9848
0.5035 17.7846 0.8680 272.7300 87.8620 -71.7349 0.0000 0.0000 0.0000 -12.5002 -22.5931 2.8839 0.0000 -0.0000 -0.0000 -0.4854 18.2701 -21.1950 0.1896 -2.8045 -7.7349 0.0000 0.0000 0.0000 20.1127 14.3540 -10.4341 -0.7804 -5.6401 15.7436 -0.6242 -10.4289 -22.1367 -0.3112 3.5862 -9.9154 -3.7773 -0.1771 -10.3716 -2.0275 0.5823 -11.1427 -0.0191 0.7618 -5.9288 -1.9601 1.9731 -10.4889 14.8443 0.5345 21.3509 5.4644 1.8350 8.2871 -0.0000 0.0000 0.0000 -5.5028 -2.3246 7.0133 85.8506 -59.9348 -56.4073 -0.0000 0.0000 -37.0809 -3.0417 22.8237 -1.1808 -7.1250 0.0000 -0.0000 -31.3902 49.9815 -4.2242 -0.0000 0.0000 0.0000 24.8204 -9.8957 58.1237 -140.2504 47.9208 -101.7468 0.0000 -0.0000 -5.4557 -3.7427 23.9377 -1.5204 7.1250 -0.0000 -0.0000 15.6816 -6.7185 14.2992
0.4959 17.7864 0.8603 269.7620 87.9288 -74.7430 0.0000 0.0000 0.0000 -12.5886 -22.7309 2.9032 0.0000 -0.0000 -0.0000 -0.5244 18.4334 -21.0468 0.1998 -2.8781 -7.9395 0.0000 0.0000 0.0000 20.0351 14.4035 -10.3416 -0.7775 -5.6296 15.7135 -0.6422 -10.4372 -22.3122 -0.2757 3.3774 -9.3314 -3.7629 -0.1728 -10.2633 -2.0039 0.5781 -11.1065 -0.0029 0.7573 -5.9485 -2.1071 1.7764 -10.3971 14.7590 0.3240 21.0008 5.4195 1.6918 8.1713 -0.0000 -0.0000 0.0000 -5.0576 -2.4883 8.8672 89.2674 -59.9980 -59.3656 -0.0000 0.0000 -35.1396 -2.9973 22.0689 -1.1270 -7.1250 0.0000 -0.0000 -30.9051 49.3388 -3.6201 -0.0000 -0.0000 0.0000 24.1802 -8.8447 56.9769 -140.7375 47.6268 -102.1075 0.0000 -0.0000 -6.2742 -3.5260 24.1333 -1.4431 7.1250 -0.0000 -0.0000 15.8092 -6.5467 14.4800
0.4887 17.7870 0.8516 265.6080 87.9750 -78.9445 0.0000 0.0000 0.0000 -12.6623 -22.8950 2.9455 0.0000 0.0000 0.0000 -0.5510 18.5408 -20.9385 0.2070 -2.9295 -8.0827 0.0000 0.0000 0.0000 19.9826 14.2949 -10.2446 -0.7640 -5.5818 15.5757 -0.6274 -10.5274 -22.2619 -0.2707 3.3471 -9.2466 -3.7322 -0.1878 -10.1423 -1.9484 0.5477 -11.0785 0.0361 0.7403 -5.9835 -2.3298 1.6250 -10.2310 14.7468 0.1848 20.5942 5.4157 1.5791 8.0151 -0.0000 0.0000 0.0000 -4.7413 -2.6059 10.6961 92.8604 -59.9691 -62.4769 -0.0000 0.0000 -33.2542 -2.5698 21.6597 -0.9490 -7.1250 0.0000 -0.0000 -30.2934 49.0485 -3.3018 -0.0000 0.0000 0.0000 23.4729 -7.9272 56.0041 -141.3105 47.2741 -102.5296 0.0000 -0.0000 -6.7208 -3.8678 24.2833 -1.5926 7.1250 -0.0000 -0.0000 15.6018 -6.3762 14.3276
0.4794 17.7823 0.8436 260.7700 87.9797 -83.7975 0.0000 0.0000 0.0000 -12.6818 -23.0819 2.9484 0.0000 0.0000 0.0000 -0.5745 18.6292 -20.8303 0.2232 -3.0414 -8.3940 0.0000 0.0000 0.0000 19.9927 14.0901 -10.1942 -0.7449 -5.5132 15.3784 -0.5570 -10.9214 -21.9902 -0.3701 3.9075 -10.8165 -3.7368 -0.2642 -10.0034 -1.8160 0.4386 -11.0628 0.1714 0.6898 -6.0408 -2.5266 1.5319 -10.1345 14.6585 0.1273 20.2392 5.3932 1.5033 7.8825 0.0000 -0.0000 0.0000 -4.5414 -2.6304 12.4897 96.5085 -59.8393 -65.6335 -0.0000 0.0000 -31.6398 -2.1642 21.5493 -0.7952 -7.1250 0.0000 -0.0000 -29.8732 49.0123 -3.2191 0.0000 -0.0000 0.0000 22.7353 -6.8276 55.2255 -141.7545 46.9954 -102.8551 0.0000 -0.0000 -6.7638 -4.8549 24.4118 -2.0105 7.1250 -0.0000 -0.0000 15.0072 -6.1732 13.8000
0.4683 17.7706 0.8363 256.8870 88.0540 -87.6923 0.0000 0.0000 0.0000 -12.7864 -23.2423 2.9368 0.0000 -0.0000 -0.0000 -0.6057 18.7545 -20.7004 0.2491 -3.2116 -8.8684 0.0000 0.0000 0.0000 19.9328 13.9144 -10.1231 -0.7236 -5.4353 15.1544 -0.4351 -11.5912 -21.5127 -0.6163 5.0243 -13.9780 -3.8087 -0.2881 -9.9195 -1.7588 0.4035 -11.0071 0.2703 0.6760 -6.0263 -2.6208 1.4186 -10.1215 14.5418 0.0264 19.8892 5.3424 1.4158 7.7737 0.0000 -0.0000 0.0000 -4.3228 -2.8797 14.2145 100.1962 -59.6035 -68.8184 -0.0000 0.0000 -30.1310 -1.9193 21.2286 -0.6952 -7.1250 0.0000 -0.0000 -29.4788 48.7686 -2.9790 0.0000 -0.0000 0.0000 22.1531 -5.7484 54.4959 -142.0832 46.7861 -103.0951 0.0000 -0.0000 -6.4601 -5.6267 24.5508 -2.3441 7.1250 -0.0000 -0.0000 14.5422 -5.9732 13.3993
